<mxfile host="app.diagrams.net" modified="2021-04-29T21:24:48.400Z" agent="5.0 (X11; Linux x86_64) AppleWebKit/537.36 (KHTML, like Gecko) Chrome/90.0.4430.85 Safari/537.36" etag="7323phGsEtvxs8EaH_xD" version="14.5.10" type="github">
  <diagram id="QY0wpldgxNG7kVw0nmbT" name="Page-1">
    <mxGraphModel dx="1865" dy="1779" grid="1" gridSize="10" guides="1" tooltips="1" connect="1" arrows="1" fold="1" page="1" pageScale="1" pageWidth="827" pageHeight="1169" math="0" shadow="0">
      <root>
        <mxCell id="0" />
        <mxCell id="1" parent="0" />
        <mxCell id="LyFGl8Un5KuxcH57Awxg-1" value="" style="shape=ext;double=1;rounded=0;whiteSpace=wrap;html=1;strokeColor=#FF1008;" parent="1" vertex="1">
          <mxGeometry x="170" width="540" height="530" as="geometry" />
        </mxCell>
        <mxCell id="LyFGl8Un5KuxcH57Awxg-2" value="API Gateway" style="shape=ext;double=1;rounded=0;whiteSpace=wrap;html=1;strokeColor=#FF1008;" parent="1" vertex="1">
          <mxGeometry x="90" y="230" width="130" height="80" as="geometry" />
        </mxCell>
        <mxCell id="LyFGl8Un5KuxcH57Awxg-3" value="" style="whiteSpace=wrap;html=1;strokeColor=#FF1008;" parent="1" vertex="1">
          <mxGeometry x="560" y="30" width="120" height="150" as="geometry" />
        </mxCell>
        <mxCell id="LyFGl8Un5KuxcH57Awxg-4" value="" style="whiteSpace=wrap;html=1;strokeColor=#FF1008;" parent="1" vertex="1">
          <mxGeometry x="560" y="200" width="120" height="150" as="geometry" />
        </mxCell>
        <mxCell id="LyFGl8Un5KuxcH57Awxg-5" value="" style="whiteSpace=wrap;html=1;strokeColor=#FF1008;" parent="1" vertex="1">
          <mxGeometry x="560" y="370" width="120" height="150" as="geometry" />
        </mxCell>
        <mxCell id="LyFGl8Un5KuxcH57Awxg-6" value="currency-conversion" style="text;html=1;strokeColor=none;fillColor=none;align=center;verticalAlign=middle;whiteSpace=wrap;rounded=0;rotation=90;" parent="1" vertex="1">
          <mxGeometry x="540" y="90" width="150" height="20" as="geometry" />
        </mxCell>
        <mxCell id="LyFGl8Un5KuxcH57Awxg-7" value="currency-exchange" style="text;html=1;strokeColor=none;fillColor=none;align=center;verticalAlign=middle;whiteSpace=wrap;rounded=0;rotation=90;" parent="1" vertex="1">
          <mxGeometry x="560" y="270" width="120" height="20" as="geometry" />
        </mxCell>
        <mxCell id="LyFGl8Un5KuxcH57Awxg-8" value="country&lt;br&gt;" style="text;html=1;strokeColor=none;fillColor=none;align=center;verticalAlign=middle;whiteSpace=wrap;rounded=0;rotation=90;" parent="1" vertex="1">
          <mxGeometry x="595" y="443" width="45" height="20" as="geometry" />
        </mxCell>
        <mxCell id="LyFGl8Un5KuxcH57Awxg-9" value="" style="endArrow=classic;html=1;fillColor=#fff2cc;strokeColor=#d6b656;" parent="1" source="LyFGl8Un5KuxcH57Awxg-3" edge="1">
          <mxGeometry width="50" height="50" relative="1" as="geometry">
            <mxPoint x="390" y="320" as="sourcePoint" />
            <mxPoint x="891.5999755859375" y="105" as="targetPoint" />
          </mxGeometry>
        </mxCell>
        <mxCell id="LyFGl8Un5KuxcH57Awxg-10" value="" style="endArrow=classic;html=1;fillColor=#ffe6cc;strokeColor=#d79b00;" parent="1" source="LyFGl8Un5KuxcH57Awxg-4" edge="1">
          <mxGeometry width="50" height="50" relative="1" as="geometry">
            <mxPoint x="410" y="320" as="sourcePoint" />
            <mxPoint x="890" y="110" as="targetPoint" />
          </mxGeometry>
        </mxCell>
        <mxCell id="LyFGl8Un5KuxcH57Awxg-11" value="" style="endArrow=classic;html=1;fillColor=#ffe6cc;strokeColor=#d79b00;" parent="1" source="LyFGl8Un5KuxcH57Awxg-5" edge="1">
          <mxGeometry width="50" height="50" relative="1" as="geometry">
            <mxPoint x="410" y="320" as="sourcePoint" />
            <mxPoint x="890" y="120" as="targetPoint" />
          </mxGeometry>
        </mxCell>
        <mxCell id="LyFGl8Un5KuxcH57Awxg-12" value="In micro-service level, we validate the JWT token &lt;br&gt;1. based on Audience first and &lt;br&gt;2. then based on scope" style="shape=note;whiteSpace=wrap;html=1;backgroundOutline=1;darkOpacity=0.05;align=left;" parent="1" vertex="1">
          <mxGeometry x="890" y="100" width="300" height="70" as="geometry" />
        </mxCell>
        <mxCell id="LyFGl8Un5KuxcH57Awxg-15" value="Audience is nothing, just the name of micro-service in the JWT token. We validate the JWT as it contains the name of respective micro-service.&amp;nbsp;&amp;nbsp;" style="shape=note;whiteSpace=wrap;html=1;backgroundOutline=1;darkOpacity=0.05;align=left;" parent="1" vertex="1">
          <mxGeometry x="890" y="170" width="300" height="80" as="geometry" />
        </mxCell>
        <mxCell id="LyFGl8Un5KuxcH57Awxg-16" value="The all micro-services and API gateway are supporting&lt;b&gt;&lt;font color=&quot;#ff3819&quot;&gt; GENERIC OAUTH 2&lt;/font&gt;&lt;/b&gt; Flow&amp;nbsp;" style="shape=note;whiteSpace=wrap;html=1;backgroundOutline=1;darkOpacity=0.05;" parent="1" vertex="1">
          <mxGeometry x="870" y="600" width="310" height="120" as="geometry" />
        </mxCell>
        <mxCell id="LyFGl8Un5KuxcH57Awxg-17" value="" style="endArrow=classic;html=1;exitX=1;exitY=1;exitDx=0;exitDy=0;entryX=0;entryY=0;entryDx=0;entryDy=0;entryPerimeter=0;fillColor=#ffe6cc;strokeColor=#d79b00;" parent="1" source="LyFGl8Un5KuxcH57Awxg-1" target="LyFGl8Un5KuxcH57Awxg-16" edge="1">
          <mxGeometry width="50" height="50" relative="1" as="geometry">
            <mxPoint x="580" y="590" as="sourcePoint" />
            <mxPoint x="850" y="605" as="targetPoint" />
          </mxGeometry>
        </mxCell>
        <mxCell id="LyFGl8Un5KuxcH57Awxg-20" value="" style="endArrow=classic;startArrow=classic;html=1;entryX=0;entryY=0.5;entryDx=0;entryDy=0;fillColor=#d5e8d4;strokeColor=#82b366;exitX=1;exitY=0.5;exitDx=0;exitDy=0;" parent="1" source="LPHnJAiMcrWFg-aTlJ54-1" target="LyFGl8Un5KuxcH57Awxg-3" edge="1">
          <mxGeometry width="50" height="50" relative="1" as="geometry">
            <mxPoint x="440" y="190" as="sourcePoint" />
            <mxPoint x="380" y="250" as="targetPoint" />
          </mxGeometry>
        </mxCell>
        <mxCell id="LyFGl8Un5KuxcH57Awxg-21" value="" style="endArrow=classic;startArrow=classic;html=1;entryX=0;entryY=0.5;entryDx=0;entryDy=0;fillColor=#d5e8d4;strokeColor=#82b366;exitX=1;exitY=0.5;exitDx=0;exitDy=0;" parent="1" target="LyFGl8Un5KuxcH57Awxg-4" edge="1" source="LPHnJAiMcrWFg-aTlJ54-1">
          <mxGeometry width="50" height="50" relative="1" as="geometry">
            <mxPoint x="500" y="275" as="sourcePoint" />
            <mxPoint x="380" y="250" as="targetPoint" />
          </mxGeometry>
        </mxCell>
        <mxCell id="LyFGl8Un5KuxcH57Awxg-22" value="" style="endArrow=classic;startArrow=classic;html=1;entryX=1;entryY=0.5;entryDx=0;entryDy=0;exitX=0;exitY=0.5;exitDx=0;exitDy=0;fillColor=#d5e8d4;strokeColor=#82b366;" parent="1" source="LyFGl8Un5KuxcH57Awxg-5" target="LyFGl8Un5KuxcH57Awxg-2" edge="1">
          <mxGeometry width="50" height="50" relative="1" as="geometry">
            <mxPoint x="330" y="300" as="sourcePoint" />
            <mxPoint x="380" y="250" as="targetPoint" />
            <Array as="points">
              <mxPoint x="310" y="445" />
              <mxPoint x="310" y="270" />
            </Array>
          </mxGeometry>
        </mxCell>
        <mxCell id="LyFGl8Un5KuxcH57Awxg-25" value="" style="endArrow=classic;startArrow=classic;html=1;entryX=0;entryY=0.5;entryDx=0;entryDy=0;" parent="1" source="LyFGl8Un5KuxcH57Awxg-30" edge="1">
          <mxGeometry width="50" height="50" relative="1" as="geometry">
            <mxPoint x="-240" y="270" as="sourcePoint" />
            <mxPoint x="90" y="271" as="targetPoint" />
          </mxGeometry>
        </mxCell>
        <mxCell id="LyFGl8Un5KuxcH57Awxg-30" value="Client" style="outlineConnect=0;fontColor=#232F3E;gradientColor=none;strokeColor=#232F3E;fillColor=#ffffff;dashed=0;verticalLabelPosition=bottom;verticalAlign=top;align=center;html=1;fontSize=12;fontStyle=0;aspect=fixed;shape=mxgraph.aws4.resourceIcon;resIcon=mxgraph.aws4.client;" parent="1" vertex="1">
          <mxGeometry x="-307" y="240" width="60" height="60" as="geometry" />
        </mxCell>
        <mxCell id="LyFGl8Un5KuxcH57Awxg-31" value="Auth Server" style="whiteSpace=wrap;html=1;strokeColor=#82b366;fillColor=#d5e8d4;" parent="1" vertex="1">
          <mxGeometry x="130" y="-300" width="470" height="180" as="geometry" />
        </mxCell>
        <mxCell id="LyFGl8Un5KuxcH57Awxg-32" value="" style="endArrow=classic;startArrow=classic;html=1;entryX=0;entryY=0.336;entryDx=0;entryDy=0;entryPerimeter=0;" parent="1" source="LyFGl8Un5KuxcH57Awxg-30" target="LyFGl8Un5KuxcH57Awxg-31" edge="1">
          <mxGeometry width="50" height="50" relative="1" as="geometry">
            <mxPoint x="-150" y="50" as="sourcePoint" />
            <mxPoint x="-280" y="-280" as="targetPoint" />
            <Array as="points">
              <mxPoint x="-277" y="-240" />
            </Array>
          </mxGeometry>
        </mxCell>
        <mxCell id="LyFGl8Un5KuxcH57Awxg-34" value="Authentication/Authorization for public client registered in Auth Server" style="text;html=1;strokeColor=none;fillColor=none;align=center;verticalAlign=middle;whiteSpace=wrap;rounded=0;" parent="1" vertex="1">
          <mxGeometry x="-270" y="-270" width="320" height="20" as="geometry" />
        </mxCell>
        <mxCell id="LyFGl8Un5KuxcH57Awxg-39" value="Request for protected resource" style="text;html=1;align=center;verticalAlign=middle;resizable=0;points=[];autosize=1;" parent="1" vertex="1">
          <mxGeometry x="-160" y="250" width="180" height="20" as="geometry" />
        </mxCell>
        <mxCell id="LyFGl8Un5KuxcH57Awxg-40" value="Req. to Res. Server" style="text;html=1;strokeColor=none;fillColor=none;align=center;verticalAlign=middle;whiteSpace=wrap;rounded=0;" parent="1" vertex="1">
          <mxGeometry x="200" y="240" width="170" height="30" as="geometry" />
        </mxCell>
        <mxCell id="LyFGl8Un5KuxcH57Awxg-41" value="Validate the request, using the same auth server which issued the JWT token and then forward this request to respective resource server." style="shape=note;whiteSpace=wrap;html=1;backgroundOutline=1;darkOpacity=0.05;" parent="1" vertex="1">
          <mxGeometry x="-170" y="370" width="240" height="127" as="geometry" />
        </mxCell>
        <mxCell id="LyFGl8Un5KuxcH57Awxg-42" value="" style="endArrow=classic;html=1;exitX=0.25;exitY=1;exitDx=0;exitDy=0;entryX=0.5;entryY=0;entryDx=0;entryDy=0;entryPerimeter=0;" parent="1" source="LyFGl8Un5KuxcH57Awxg-2" target="LyFGl8Un5KuxcH57Awxg-41" edge="1">
          <mxGeometry width="50" height="50" relative="1" as="geometry">
            <mxPoint x="390" y="240" as="sourcePoint" />
            <mxPoint x="440" y="190" as="targetPoint" />
            <Array as="points">
              <mxPoint x="123" y="350" />
              <mxPoint x="-50" y="310" />
            </Array>
          </mxGeometry>
        </mxCell>
        <mxCell id="LyFGl8Un5KuxcH57Awxg-46" value="&lt;font style=&quot;font-size: 20px ; background-color: rgb(255 , 33 , 63)&quot; color=&quot;#f7ff14&quot;&gt;1&lt;/font&gt;" style="text;html=1;strokeColor=none;fillColor=none;align=center;verticalAlign=middle;whiteSpace=wrap;rounded=0;" parent="1" vertex="1">
          <mxGeometry x="-297" y="-270" width="40" height="20" as="geometry" />
        </mxCell>
        <mxCell id="LyFGl8Un5KuxcH57Awxg-47" value="&lt;font color=&quot;#f7ff14&quot;&gt;&lt;span style=&quot;font-size: 20px ; background-color: rgb(255 , 33 , 63)&quot;&gt;2&lt;/span&gt;&lt;/font&gt;" style="text;html=1;strokeColor=none;fillColor=none;align=center;verticalAlign=middle;whiteSpace=wrap;rounded=0;" parent="1" vertex="1">
          <mxGeometry x="-180" y="250" width="40" height="20" as="geometry" />
        </mxCell>
        <mxCell id="LPHnJAiMcrWFg-aTlJ54-1" value="API Composer" style="whiteSpace=wrap;html=1;strokeColor=#FF1008;" vertex="1" parent="1">
          <mxGeometry x="350" y="245" width="114" height="60" as="geometry" />
        </mxCell>
        <mxCell id="LPHnJAiMcrWFg-aTlJ54-2" value="" style="endArrow=classic;startArrow=classic;html=1;fillColor=#d5e8d4;strokeColor=#82b366;exitX=1;exitY=0.5;exitDx=0;exitDy=0;" edge="1" parent="1" source="LyFGl8Un5KuxcH57Awxg-2">
          <mxGeometry width="50" height="50" relative="1" as="geometry">
            <mxPoint x="330" y="302" as="sourcePoint" />
            <mxPoint x="350" y="270" as="targetPoint" />
          </mxGeometry>
        </mxCell>
        <mxCell id="LPHnJAiMcrWFg-aTlJ54-3" value="&lt;font color=&quot;#f7ff14&quot;&gt;&lt;span style=&quot;font-size: 20px ; background-color: rgb(255 , 33 , 63)&quot;&gt;3&lt;/span&gt;&lt;/font&gt;" style="text;html=1;strokeColor=none;fillColor=none;align=center;verticalAlign=middle;whiteSpace=wrap;rounded=0;" vertex="1" parent="1">
          <mxGeometry x="351" y="-70" width="40" height="20" as="geometry" />
        </mxCell>
        <mxCell id="LPHnJAiMcrWFg-aTlJ54-4" value="" style="endArrow=classic;startArrow=classic;html=1;" edge="1" parent="1">
          <mxGeometry width="50" height="50" relative="1" as="geometry">
            <mxPoint x="360" y="2" as="sourcePoint" />
            <mxPoint x="360" y="-120" as="targetPoint" />
          </mxGeometry>
        </mxCell>
        <mxCell id="LPHnJAiMcrWFg-aTlJ54-6" value="Each request will be authorized by same Auth Server" style="text;html=1;strokeColor=none;fillColor=none;align=center;verticalAlign=middle;whiteSpace=wrap;rounded=0;" vertex="1" parent="1">
          <mxGeometry x="370" y="-70" width="306" height="20" as="geometry" />
        </mxCell>
      </root>
    </mxGraphModel>
  </diagram>
</mxfile>
